<?xml version="1.0" encoding="UTF-8"?>
<svg version="1.1" xmlns="http://www.w3.org/2000/svg" width="1024" height="625">
<path d="M0 0 C168.2911453 0 168.2911453 0 208.58154297 39.56298828 C232.14372748 63.43338725 241.60856573 95.5007464 242.1875 128.5 C241.88619933 158.86441225 234.50891043 189.75134963 214 213 C213.32453125 213.80695313 212.6490625 214.61390625 211.953125 215.4453125 C189.37305689 241.73378596 159.47638492 252.42060251 126 258 C84.42 258 42.84 258 0 258 C0 172.86 0 87.72 0 0 Z M65 59 C65 105.53 65 152.06 65 200 C110.40171058 202.5350082 110.40171058 202.5350082 149 186 C149.64710938 185.50757813 150.29421875 185.01515625 150.9609375 184.5078125 C152.35786386 183.39945309 153.68836327 182.20808646 155 181 C155 180.34 155 179.68 155 179 C155.99 178.67 156.98 178.34 158 178 C168.354465 165.85435978 174.31299904 149.92050043 175 134 C175.03996094 133.26136719 175.07992187 132.52273438 175.12109375 131.76171875 C175.65845844 112.44819973 170.09349855 92.13019736 156.77734375 77.6484375 C130.98207885 53.72403796 98.72876206 59 65 59 Z " fill="#0098FF" transform="translate(533,274)"/>
<path d="M0 0 C167.76799117 0 167.76799117 0 204.58642578 36.60107422 C205.89032395 37.89146049 207.22327804 39.15230924 208.55859375 40.41015625 C213.85286827 45.47230406 218.09392707 50.80957192 222 57 C222.99 58.55847656 222.99 58.55847656 224 60.1484375 C242.03586369 90.00325732 246.22099607 130.36305188 238 164 C233.11115558 182.59924396 225.21212212 199.11930304 213 214 C212.42765625 214.72445312 211.8553125 215.44890625 211.265625 216.1953125 C190.5771539 241.31702741 157.39089488 254.07613814 126 258 C84.42 258 42.84 258 0 258 C0 172.86 0 87.72 0 0 Z M65 59 C65 105.53 65 152.06 65 200 C112.62560409 202.54236216 112.62560409 202.54236216 152.87060547 182.32543945 C167.7298944 167.45860263 174.20486302 149.71987735 174.375 129 C174.22217151 108.26275491 167.78836087 90.72290862 153.609375 75.42578125 C129.82027937 53.3104693 94.68303389 59 65 59 Z " fill="#FFFFFF" transform="translate(35,274)"/>
<path d="M0 0 C0.81581543 0.00248749 1.63163086 0.00497498 2.47216797 0.00753784 C30.91503225 0.14160374 60.39439744 4.72018965 81.88671875 25.16015625 C93.81341463 38.07098028 99.58821734 52.97219248 100.25 70.4375 C99.58902533 86.85170428 93.43047334 99.87677249 81.875 111.3125 C80.98748047 112.25029297 80.98748047 112.25029297 80.08203125 113.20703125 C72.34388858 120.77435399 61.26420811 125.65102536 50.875 128.3125 C52.30779297 128.74949219 52.30779297 128.74949219 53.76953125 129.1953125 C66.8497996 133.29213204 77.05036941 138.50421654 86.875 148.3125 C87.59816406 149.0240625 88.32132813 149.735625 89.06640625 150.46875 C99.32211481 161.21097225 103.78032775 174.68349364 104.1875 189.4375 C103.38950549 209.5868613 96.39156691 226.95070465 81.6875 240.9375 C69.46057546 251.2624585 55.04483492 257.76160866 39.75 262.125 C39.07098633 262.3199707 38.39197266 262.51494141 37.69238281 262.71582031 C24.9473191 266.11650319 12.10667867 266.72232597 -1 266.6875 C-2.21405518 266.68618576 -2.21405518 266.68618576 -3.45263672 266.68484497 C-34.16835369 266.57565335 -67.39472839 260.34103291 -91.125 239.3125 C-92.00027344 238.55582031 -92.87554687 237.79914063 -93.77734375 237.01953125 C-102.52146644 229.32921962 -102.52146644 229.32921962 -104.125 226.3125 C-103.16501281 221.21034585 -99.04815056 217.1384929 -95.875 213.1875 C-90.58682619 206.50233224 -85.41988798 199.74584612 -80.375 192.875 C-79.77913086 192.06466309 -79.18326172 191.25432617 -78.56933594 190.41943359 C-76.36614241 187.4132728 -74.19281958 184.41422937 -72.125 181.3125 C-69.16988244 182.6423029 -67.1701735 184.10663927 -64.875 186.375 C-48.44473453 200.90249575 -24.42708493 208.7515868 -2.75 208.625 C-1.73848877 208.61936035 -0.72697754 208.6137207 0.31518555 208.60791016 C12.48694581 208.40996349 23.25942144 206.24715624 32.53515625 197.80078125 C37.1843985 192.63646259 38.27656131 187.22103499 38.140625 180.4921875 C37.75798722 177.35230692 36.47820387 175.00588249 34.875 172.3125 C34.545 171.3225 34.215 170.3325 33.875 169.3125 C32.07055924 168.17783212 32.07055924 168.17783212 29.875 167.3125 C29.15183594 166.9825 28.42867187 166.6525 27.68359375 166.3125 C26.90113281 165.9825 26.11867188 165.6525 25.3125 165.3125 C24.54808594 164.9825 23.78367187 164.6525 22.99609375 164.3125 C14.50763499 161.59279356 5.94128045 160.99890431 -2.91796875 160.8984375 C-4.34622986 160.87197144 -4.34622986 160.87197144 -5.80334473 160.8449707 C-9.30623558 160.78266107 -12.8093901 160.73595496 -16.3125 160.6875 C-24.170625 160.56375 -32.02875 160.44 -40.125 160.3125 C-40.125 141.5025 -40.125 122.6925 -40.125 103.3125 C-17.625 103.0625 -17.625 103.0625 -10.63085938 103.01464844 C10.25293362 102.83999203 10.25293362 102.83999203 28.875 94.3125 C33.41360226 89.40590296 34.16739972 85.99123023 34.10546875 79.33984375 C33.7565502 76.27054332 32.41070703 73.9539161 30.875 71.3125 C30.545 70.3225 30.215 69.3325 29.875 68.3125 C28.05052577 67.21483638 28.05052577 67.21483638 25.875 66.3125 C25.19824219 65.92191406 24.52148438 65.53132813 23.82421875 65.12890625 C7.07106451 55.8408881 -13.04444601 56.75456398 -31.125 61.3125 C-45.89348933 65.80225232 -58.27131686 73.67046969 -70.125 83.3125 C-74.24047367 79.55926851 -77.31364862 75.11473835 -80.5625 70.625 C-87.28236612 61.41533504 -94.16522654 52.34170776 -101.125 43.3125 C-99.92118552 40.81888429 -98.67071278 38.63106917 -97.125 36.3125 C-96.465 36.3125 -95.805 36.3125 -95.125 36.3125 C-95.125 35.6525 -95.125 34.9925 -95.125 34.3125 C-70.45848891 8.16175759 -34.54193947 -0.16829792 0 0 Z " fill="#0098FF" transform="translate(395.125,270.6875)"/>
<path d="M0 0 C0.66 0 1.32 0 2 0 C8.00469267 11.93997207 14.00295782 23.88314836 19.9929657 35.83049488 C22.77436271 41.37761187 25.55798826 46.92358707 28.34667969 52.46704102 C31.03622971 57.81362098 33.71996077 63.1630839 36.39962769 68.51462364 C37.42463089 70.55907336 38.45175094 72.60246316 39.48098755 74.64478493 C40.91867131 77.49847682 42.34888266 80.35579439 43.77734375 83.21411133 C44.42254471 84.4883345 44.42254471 84.4883345 45.08078003 85.78829956 C45.46783112 86.56652573 45.8548822 87.34475189 46.25366211 88.14656067 C46.59288193 88.82223493 46.93210175 89.49790918 47.28160095 90.19405842 C48 92 48 92 48 95 C45.26070622 96.54074107 42.50712161 98.05392858 39.75 99.5625 C38.97269531 100.00013672 38.19539062 100.43777344 37.39453125 100.88867188 C36.64042969 101.29794922 35.88632812 101.70722656 35.109375 102.12890625 C34.41811523 102.51119385 33.72685547 102.89348145 33.01464844 103.28735352 C30.41527562 104.20683598 29.52494262 104.12776616 27 103 C25.26074219 100.31616211 25.26074219 100.31616211 23.546875 96.77734375 C23.24179016 96.15726944 22.93670532 95.53719513 22.62237549 94.89833069 C21.65157847 92.91757251 20.70070076 90.9279697 19.75 88.9375 C19.09504011 87.59246997 18.43880493 86.24806015 17.78125 84.90429688 C16.17264323 81.60993099 14.58176387 78.30735319 13 75 C12.83640689 94.69731041 12.7130041 114.39448277 12.6373148 134.09233189 C12.60123515 143.23862493 12.55205474 152.38449564 12.47192383 161.53051758 C12.40210678 169.50313839 12.35698148 177.47545332 12.34138054 185.44837135 C12.33226216 189.66933593 12.31086659 193.88942549 12.2598896 198.11010933 C12.21226596 202.08547334 12.1977405 206.05960464 12.20824623 210.03522682 C12.20632526 211.49171913 12.19246365 212.94825394 12.16556168 214.40449905 C11.87613704 223.43958244 11.87613704 223.43958244 15.60498047 231.37207031 C21.15844292 235.77058109 28.4029196 234.91543673 35.11499023 234.79467773 C36.65294809 234.7927014 38.19091255 234.79381511 39.72886658 234.79777527 C43.8900597 234.79977873 48.04983222 234.75870832 52.21069598 234.70975757 C56.56414198 234.66591336 60.91762278 234.66187979 65.27125549 234.65357971 C73.50908952 234.63184762 81.74627105 234.57443844 89.98381811 234.50413328 C99.36460437 234.42581376 108.74542227 234.38738427 118.12645423 234.35226524 C137.41808092 234.27915305 156.70881347 234.15081339 176 234 C166.76 229.38 157.52 224.76 148 220 C149.464375 216.90625 150.92875 213.8125 152.4375 210.625 C153.12863892 209.16441162 153.12863892 209.16441162 153.83374023 207.67431641 C154.37816772 206.52455322 154.37816772 206.52455322 154.93359375 205.3515625 C155.30540771 204.56604004 155.67722168 203.78051758 156.06030273 202.97119141 C156.69424858 201.641371 157.34116624 200.31766752 158 199 C163.22574268 200.56261833 167.90880032 202.81911145 172.75927734 205.26611328 C173.61846771 205.69556244 174.47765808 206.1250116 175.36288452 206.56747437 C178.18914947 207.98130091 181.01254187 209.40076583 183.8359375 210.8203125 C185.8001689 211.80429418 187.76457777 212.78792167 189.72915649 213.77120972 C194.88969697 216.355291 200.04781647 218.94416896 205.20544434 221.53405762 C210.47274703 224.17795348 215.74232822 226.81729971 221.01171875 229.45703125 C231.34337923 234.63357389 241.67248748 239.81518745 252 245 C252 245.99 252 246.98 252 248 C240.04157683 254.00234027 228.08102121 260.00040719 216.11769295 265.9929657 C210.56323745 268.77542112 205.00953886 271.55936597 199.45751953 274.34667969 C194.10358656 277.03447914 188.74773193 279.71841175 183.39049911 282.39962769 C181.34278727 283.42533711 179.29578223 284.45245882 177.24948502 285.48098755 C174.3922799 286.91680594 171.5326457 288.34766786 168.67236328 289.77734375 C167.81928589 290.20747772 166.9662085 290.63761169 166.08728027 291.08078003 C165.31042877 291.46783112 164.53357727 291.8548822 163.73318481 292.25366211 C162.71829074 292.76249184 162.71829074 292.76249184 161.68289375 293.28160095 C160 294 160 294 158 294 C154.7 287.73 151.4 281.46 148 275 C155.80669229 267.19330771 167.12522855 263.93738572 177 259 C133.44 259 89.88 259 45 259 C72.39 286.39 99.78 313.78 128 342 C127.67 337.05 127.34 332.1 127 327 C130.31144048 326.49194338 133.62386727 325.99337791 136.9375 325.5 C137.86369141 325.35691406 138.78988281 325.21382813 139.74414062 325.06640625 C145.56683571 324.20832487 151.11474367 323.85513215 157 324 C158.88018298 333.36082826 160.03316225 342.78929159 161.1640625 352.26171875 C161.36269919 353.90513014 161.56162795 355.54850625 161.76083374 357.19184875 C162.27992176 361.48051932 162.79508637 365.76965201 163.30938721 370.05889893 C163.83666481 374.45036377 164.3677181 378.84137189 164.8984375 383.23242188 C165.93595155 391.8211763 166.96931407 400.41042351 168 409 C164.10325008 408.45145997 160.76669963 407.66188948 157.16772461 406.07666016 C156.25071777 405.67690979 155.33371094 405.27715942 154.38891602 404.86529541 C153.40334717 404.42763855 152.41777832 403.98998169 151.40234375 403.5390625 C150.355625 403.08110291 149.30890625 402.62314331 148.23046875 402.15130615 C145.97335132 401.16318495 143.71752409 400.17211243 141.46286011 399.17840576 C135.49189701 396.54737568 129.51119893 393.93865143 123.53125 391.328125 C122.92459944 391.06298977 122.31794888 390.79785454 121.69291496 390.52468491 C109.14920777 385.04283776 96.55498398 379.68454809 83.9375 374.375 C83.00582001 373.98258118 82.07414001 373.59016235 81.11422729 373.18585205 C71.41826375 369.10285323 61.715574 365.03613619 52 361 C52.62834505 357.20888468 53.73528803 353.99219548 55.28515625 350.48046875 C55.73310547 349.45888672 56.18105469 348.43730469 56.64257812 347.38476562 C57.11115234 346.32966797 57.57972656 345.27457031 58.0625 344.1875 C58.53494141 343.11306641 59.00738281 342.03863281 59.49414062 340.93164062 C60.65832536 338.28576624 61.82707832 335.64201005 63 333 C69 335 75 337 81 339 C80.53193215 338.69048055 80.06386431 338.38096109 79.58161259 338.06206226 C64.12453328 327.76060383 49.59491771 316.45988896 35.5625 304.3125 C35.02161727 303.84631744 34.48073455 303.38013488 33.92346144 302.89982557 C5.49286202 278.29457594 -12.3792134 253.47615978 -15.58177185 215.22566223 C-16.99733345 195.42342231 -16.8601994 175.64050836 -16.1875 155.8125 C-16.15486856 154.81765233 -16.12223712 153.82280465 -16.08861685 152.79781008 C-15.21907099 126.79744193 -13.52365947 100.89109795 -11 75 C-11.4031543 75.84296631 -11.80630859 76.68593262 -12.22167969 77.55444336 C-13.72379945 80.67796378 -15.23832707 83.79479277 -16.76171875 86.90795898 C-17.41850023 88.25672985 -18.07023443 89.60797063 -18.71679688 90.96166992 C-19.64699091 92.90694532 -20.59496543 94.84262071 -21.546875 96.77734375 C-22.11245117 97.94515381 -22.67802734 99.11296387 -23.26074219 100.31616211 C-25 103 -25 103 -27.08990479 103.93345642 C-29.59490283 104.02072513 -30.92184806 103.33867494 -33.109375 102.12890625 C-33.86347656 101.71962891 -34.61757813 101.31035156 -35.39453125 100.88867188 C-36.56048828 100.2322168 -36.56048828 100.2322168 -37.75 99.5625 C-38.54277344 99.12873047 -39.33554687 98.69496094 -40.15234375 98.24804688 C-42.10780809 97.17607546 -44.05635908 96.09321878 -46 95 C-45.38317263 89.88048921 -43.05324762 85.7065169 -40.75561523 81.1706543 C-40.31655853 80.29210281 -39.87750183 79.41355133 -39.42514038 78.50837708 C-37.97529658 75.61077625 -36.51700301 72.71751659 -35.05859375 69.82421875 C-34.05058868 67.81380492 -33.04311383 65.80312515 -32.03614807 63.79219055 C-29.38640773 58.50415571 -26.72947931 53.21976445 -24.07104492 47.93609619 C-21.35877334 42.54225914 -18.65330561 37.14501216 -15.94726562 31.74804688 C-10.63816911 21.16201349 -5.32147367 10.57981631 0 0 Z " fill="#0065FE" transform="translate(768,4)"/>
<path d="M0 0 C0.66 0 1.32 0 2 0 C8.00469267 11.93997207 14.00295782 23.88314836 19.9929657 35.83049488 C22.77436271 41.37761187 25.55798826 46.92358707 28.34667969 52.46704102 C31.03622971 57.81362098 33.71996077 63.1630839 36.39962769 68.51462364 C37.42463089 70.55907336 38.45175094 72.60246316 39.48098755 74.64478493 C40.91867131 77.49847682 42.34888266 80.35579439 43.77734375 83.21411133 C44.42254471 84.4883345 44.42254471 84.4883345 45.08078003 85.78829956 C45.46783112 86.56652573 45.8548822 87.34475189 46.25366211 88.14656067 C46.59288193 88.82223493 46.93210175 89.49790918 47.28160095 90.19405842 C48 92 48 92 48 95 C45.26070622 96.54074107 42.50712161 98.05392858 39.75 99.5625 C38.97269531 100.00013672 38.19539062 100.43777344 37.39453125 100.88867188 C36.64042969 101.29794922 35.88632812 101.70722656 35.109375 102.12890625 C34.41811523 102.51119385 33.72685547 102.89348145 33.01464844 103.28735352 C30.41527562 104.20683598 29.52494262 104.12776616 27 103 C25.26074219 100.31616211 25.26074219 100.31616211 23.546875 96.77734375 C23.24179016 96.15726944 22.93670532 95.53719513 22.62237549 94.89833069 C21.65157847 92.91757251 20.70070076 90.9279697 19.75 88.9375 C19.09504011 87.59246997 18.43880493 86.24806015 17.78125 84.90429688 C16.17264323 81.60993099 14.58176387 78.30735319 13 75 C13.00222061 75.77691476 13.00444122 76.55382952 13.00672913 77.35428715 C13.05803737 96.26711005 13.06519593 115.17947933 13.02334595 134.09233189 C13.00416964 143.23854982 12.99988132 152.38432037 13.03076172 161.53051758 C13.05764253 169.50333586 13.05646679 177.47557462 13.02174091 185.44837135 C13.00433251 189.66931318 13.00087851 193.88921707 13.03103638 198.11010933 C13.05899864 202.08579515 13.04935538 206.05964219 13.01126289 210.03522682 C13.00386383 211.49164699 13.01003103 212.94821132 13.03101921 214.40449905 C13.1781146 225.40059868 13.1781146 225.40059868 10.2696228 229.3491497 C8.26420608 231.11524216 6.23538194 232.54414408 4 234 C2.86313842 235.05318861 1.74645644 236.12918979 0.6640625 237.23828125 C0.15746094 237.74810547 -0.34914063 238.25792969 -0.87109375 238.78320312 C-1.36738281 239.28787109 -1.86367188 239.79253906 -2.375 240.3125 C-2.89449219 240.83650391 -3.41398438 241.36050781 -3.94921875 241.90039062 C-5.30151278 243.2649147 -6.65094888 244.63226971 -8 246 C-8.66 246.66 -9.32 247.32 -10 248 C-10.33 190.91 -10.66 133.82 -11 75 C-15.62 84.24 -20.24 93.48 -25 103 C-29.27177432 104.06794358 -29.55928361 104.09221437 -33.109375 102.12890625 C-33.86347656 101.71962891 -34.61757813 101.31035156 -35.39453125 100.88867188 C-36.56048828 100.2322168 -36.56048828 100.2322168 -37.75 99.5625 C-38.54277344 99.12873047 -39.33554687 98.69496094 -40.15234375 98.24804688 C-42.10780809 97.17607546 -44.05635908 96.09321878 -46 95 C-45.38317263 89.88048921 -43.05324762 85.7065169 -40.75561523 81.1706543 C-40.31655853 80.29210281 -39.87750183 79.41355133 -39.42514038 78.50837708 C-37.97529658 75.61077625 -36.51700301 72.71751659 -35.05859375 69.82421875 C-34.05058868 67.81380492 -33.04311383 65.80312515 -32.03614807 63.79219055 C-29.38640773 58.50415571 -26.72947931 53.21976445 -24.07104492 47.93609619 C-21.35877334 42.54225914 -18.65330561 37.14501216 -15.94726562 31.74804688 C-10.63816911 21.16201349 -5.32147367 10.57981631 0 0 Z " fill="#00CB00" transform="translate(768,4)"/>
<path d="M0 0 C5.22574268 1.56261833 9.90880032 3.81911145 14.75927734 6.26611328 C15.61846771 6.69556244 16.47765808 7.1250116 17.36288452 7.56747437 C20.18914947 8.98130091 23.01254187 10.40076583 25.8359375 11.8203125 C27.8001689 12.80429418 29.76457777 13.78792167 31.72915649 14.77120972 C36.88969697 17.355291 42.04781647 19.94416896 47.20544434 22.53405762 C52.47274703 25.17795348 57.74232822 27.81729971 63.01171875 30.45703125 C73.34337923 35.63357389 83.67248748 40.81518745 94 46 C94 46.99 94 47.98 94 49 C82.04157683 55.00234027 70.08102121 61.00040719 58.11769295 66.9929657 C52.56323745 69.77542112 47.00953886 72.55936597 41.45751953 75.34667969 C36.10358656 78.03447914 30.74773193 80.71841175 25.39049911 83.39962769 C23.34278727 84.42533711 21.29578223 85.45245882 19.24948502 86.48098755 C16.3922799 87.91680594 13.5326457 89.34766786 10.67236328 90.77734375 C9.81928589 91.20747772 8.9662085 91.63761169 8.08728027 92.08078003 C7.31042877 92.46783112 6.53357727 92.8548822 5.73318481 93.25366211 C5.05658876 93.59288193 4.37999271 93.93210175 3.68289375 94.28160095 C2 95 2 95 0 95 C-3.3 88.73 -6.6 82.46 -10 76 C-7.01947512 73.01947512 -4.76024752 71.70626829 -1.01953125 69.86328125 C0.14384766 69.28642578 1.30722656 68.70957031 2.50585938 68.11523438 C3.73300866 67.5141917 4.96022303 66.91328191 6.1875 66.3125 C7.42670635 65.70042434 8.66564188 65.08780005 9.90429688 64.47460938 C12.93357536 62.97765075 15.96551257 61.48636358 19 60 C18.32452559 60.01512571 17.64905117 60.03025143 16.95310783 60.04583549 C0.41366202 60.40844598 -16.12256613 60.64578501 -32.66557503 60.74871635 C-40.66659577 60.80142917 -48.66312951 60.89441176 -56.66210938 61.08691406 C-63.64559793 61.25487035 -70.6250255 61.34247412 -77.61060417 61.33897984 C-81.30185487 61.33979986 -84.98347658 61.37713566 -88.67248917 61.51125717 C-102.12644572 61.97820372 -114.05145121 62.00431994 -124.46033227 52.51594126 C-129.39942273 47.73823895 -133.96962176 42.56804639 -138 37 C-138 36.67 -138 36.34 -138 36 C-86.52 35.67 -35.04 35.34 18 35 C8.76 30.38 -0.48 25.76 -10 21 C-8.535625 17.90625 -7.07125 14.8125 -5.5625 11.625 C-5.10174072 10.65127441 -4.64098145 9.67754883 -4.16625977 8.67431641 C-3.80330811 7.90780762 -3.44035645 7.14129883 -3.06640625 6.3515625 C-2.69459229 5.56604004 -2.32277832 4.78051758 -1.93969727 3.97119141 C-1.30575142 2.641371 -0.65883376 1.31766752 0 0 Z " fill="#CC0000" transform="translate(926,203)"/>
</svg>
