<?xml version="1.0" encoding="UTF-8"?>
<svg version="1.1" xmlns="http://www.w3.org/2000/svg" width="1491" height="449">
<path d="M0 0 C123.56672349 0 123.56672349 0 150.421875 26.390625 C151.27265625 27.25171875 152.1234375 28.1128125 153 29 C153.66515625 29.65484375 154.3303125 30.3096875 155.015625 30.984375 C171.99403007 48.8805317 176.50105685 73.77968096 176.21484375 97.53125 C175.53236109 121.7784599 166.14218971 143.06067644 149 160 C148.03320312 160.98226562 148.03320312 160.98226562 147.046875 161.984375 C126.42162473 181.53352526 98.61033317 185.34164212 71.484375 185.1953125 C69.64990358 185.1923658 67.81543047 185.19032923 65.98095703 185.18920898 C59.23727877 185.17879425 52.49363668 185.1508719 45.75 185.125 C30.6525 185.08375 15.555 185.0425 0 185 C0 123.95 0 62.9 0 0 Z M48 42 C48 75.33 48 108.66 48 143 C83.43931744 144.90039724 83.43931744 144.90039724 112.75 129.875 C124.30972959 117.50733232 127.7846139 103.81847979 127.28125 87.33984375 C126.63707706 74.99051164 121.95216816 62.75323109 113 54 C92.53217001 39.26188914 74.41235582 42 48 42 Z " fill="#FFFFFF" transform="translate(0,260)"/>
<path d="M0 0 C122.59026424 0 122.59026424 0 148.25390625 25.22265625 C149.16011719 26.13917969 150.06632812 27.05570312 151 28 C151.81339844 28.80308594 152.62679688 29.60617187 153.46484375 30.43359375 C169.53849644 47.16667834 175.4355023 69.4820956 175.3125 92.25 C175.30512817 93.88243652 175.30512817 93.88243652 175.29760742 95.54785156 C174.94404393 120.0253242 166.45191551 141.74199466 149 159 C148.195625 159.8146875 147.39125 160.629375 146.5625 161.46875 C109.37319656 197.19005462 42.51022791 185 0 185 C0 123.95 0 62.9 0 0 Z M47 42 C47 75.33 47 108.66 47 143 C83.21075913 144.65387423 83.21075913 144.65387423 112.6875 128.9375 C122.52431656 118.61233085 126.39944801 106.62564411 126.3125 92.6875 C126.30758545 91.75832764 126.3026709 90.82915527 126.29760742 89.87182617 C126.18349115 83.19397601 125.57659591 77.22331027 123 71 C122.6596875 70.15566406 122.319375 69.31132812 121.96875 68.44140625 C116.62910712 56.58956378 108.44775905 49.83017259 96.54296875 45.00390625 C80.69937457 39.36283098 63.53849235 42 47 42 Z " fill="#039AFF" transform="translate(1061,260)"/>
<path d="M0 0 C0.66 0 1.32 0 2 0 C16.19 28.38 30.38 56.76 45 86 C41.41023449 88.69232413 37.86738117 90.71600456 33.875 92.6875 C33.24207031 93.00783203 32.60914063 93.32816406 31.95703125 93.65820312 C27.25346482 96 27.25346482 96 25 96 C21.04 88.08 17.08 80.16 13 72 C12.88713386 89.77624391 12.79502838 107.55218209 12.74093914 125.32868481 C12.71515708 133.58261632 12.68000679 141.83630941 12.62280273 150.09008789 C12.5729675 157.28407443 12.54070899 164.47788831 12.52955753 171.67204267 C12.52303885 175.4814153 12.50771899 179.29029397 12.47134972 183.09950829 C12.43738772 186.68567727 12.42694705 190.27114931 12.43446159 193.85746384 C12.43243216 195.7996332 12.4055378 197.74172681 12.37789917 199.68370056 C12.40636713 204.48658936 12.47618155 207.97865647 14.68530273 212.28601074 C20.13560168 215.10429341 25.56179925 214.65053477 31.6027832 214.56762695 C33.00251718 214.56621588 34.40225486 214.56700963 35.80198669 214.56983948 C39.59528345 214.57127276 43.387788 214.5418983 47.18090081 214.50696969 C51.14734892 214.47569101 55.11381564 214.47277428 59.08036804 214.46684265 C66.58856156 214.45130857 74.0963906 214.41028627 81.6044237 214.3600952 C90.15329763 214.30418797 98.70218906 214.27671181 107.25120032 214.25161803 C124.8343821 214.1993697 142.41706431 214.10768376 160 214 C152.08 210.04 144.16 206.08 136 202 C136.75016928 198.24915361 137.13603471 196.35485727 138.84765625 193.23046875 C139.17000244 192.63387451 139.49234863 192.03728027 139.82446289 191.42260742 C140.23301514 190.68502197 140.64156738 189.94743652 141.0625 189.1875 C141.76534412 187.90560229 142.4677056 186.62343988 143.16967773 185.34106445 C143.77368408 184.23851318 144.37769043 183.13596191 145 182 C162.46105802 190.08287665 179.6290926 198.75532614 196.82684326 207.37908936 C200.80242717 209.37207217 204.77919907 211.36268169 208.75585938 213.35351562 C216.50504388 217.233409 224.25294773 221.11585091 232 225 C232 225.66 232 226.32 232 227 C221.12155829 232.48552148 210.23883409 237.96244062 199.35052872 243.42835999 C194.29501752 245.96656145 189.24104057 248.50772386 184.19042969 251.05566406 C179.31804443 253.51355631 174.44181437 255.96365539 169.56279755 258.40835571 C167.70023727 259.34333678 165.83908965 260.28113739 163.97937775 261.22177124 C161.37825983 262.53680668 158.77234058 263.84180924 156.16503906 265.14453125 C155.39395813 265.53726227 154.6228772 265.92999329 153.82843018 266.33462524 C153.11614258 266.68801971 152.40385498 267.04141418 151.66998291 267.40551758 C151.0542252 267.71524002 150.43846748 268.02496246 149.80405045 268.34407043 C148 269 148 269 144 269 C142.62978206 266.23682377 141.28169824 263.46341522 139.9375 260.6875 C139.35258789 259.50897461 139.35258789 259.50897461 138.75585938 258.30664062 C138.20961914 257.1706543 138.20961914 257.1706543 137.65234375 256.01171875 C137.31195068 255.31522217 136.97155762 254.61872559 136.62084961 253.90112305 C136 252 136 252 137 249 C144.92 245.04 152.84 241.08 161 237 C121.4 237 81.8 237 41 237 C66.41 262.41 91.82 287.82 118 314 C117.67 309.05 117.34 304.1 117 299 C120.74960306 298.49685838 124.49962967 297.99736094 128.25 297.5 C129.31347656 297.35691406 130.37695312 297.21382813 131.47265625 297.06640625 C132.49746094 296.93105469 133.52226563 296.79570312 134.578125 296.65625 C135.52075195 296.53056641 136.46337891 296.40488281 137.43457031 296.27539062 C140 296 140 296 144 296 C145.6400532 304.43817204 146.84919478 312.90155713 147.9453125 321.42578125 C148.12167876 322.78575897 148.29818499 324.14571855 148.474823 325.50566101 C148.84140345 328.33336567 149.20586117 331.16133378 149.56884766 333.98950195 C150.03276567 337.60219447 150.5027631 341.21406685 150.97441292 344.82575703 C151.33913047 347.62474863 151.70028835 350.42419099 152.06042099 353.22377586 C152.31528322 355.19929761 152.57339576 357.17439917 152.83157349 359.14949036 C152.98528412 360.35481918 153.13899475 361.56014801 153.29736328 362.80200195 C153.43345001 363.85692337 153.56953674 364.91184479 153.70974731 365.99873352 C154.00186875 369.01932317 154.05097465 371.96736262 154 375 C147.6757196 373.00012743 141.58212052 370.65795665 135.4921875 368.03515625 C134.58822235 367.64930359 133.6842572 367.26345093 132.75289917 366.86590576 C129.79220995 365.60132656 126.83363583 364.33187494 123.875 363.0625 C121.8064796 362.17824466 119.73779198 361.2943804 117.66894531 360.41088867 C113.33884043 358.56131352 109.00947201 356.71003034 104.68066406 354.85742188 C94.75143885 350.60906044 84.81576297 346.3758514 74.87896729 342.14523315 C71.78320815 340.82664448 68.6881949 339.50631697 65.59326172 338.18579102 C63.70282652 337.38030762 61.81236568 336.57488441 59.921875 335.76953125 C58.62671463 335.21625153 58.62671463 335.21625153 57.3053894 334.65179443 C56.5146402 334.3152887 55.72389099 333.97878296 54.90917969 333.63208008 C54.2226532 333.33932693 53.53612671 333.04657379 52.82879639 332.74494934 C51.24378332 332.09930368 49.62364167 331.54121389 48 331 C48.614211 327.38549563 49.60366266 324.27609839 51.06640625 320.91796875 C51.46923828 319.98662109 51.87207031 319.05527344 52.28710938 318.09570312 C52.70798828 317.13599609 53.12886719 316.17628906 53.5625 315.1875 C53.98724609 314.20845703 54.41199219 313.22941406 54.84960938 312.22070312 C55.89539506 309.81187093 56.94564784 307.40509197 58 305 C59.33401777 305.43540858 60.66716774 305.87347586 62 306.3125 C62.7425 306.55613281 63.485 306.79976563 64.25 307.05078125 C66.57314728 307.85266305 68.87203782 308.69380709 71.171875 309.55932617 C71.88956055 309.82919846 72.60724609 310.09907074 73.34667969 310.37712097 C73.89227539 310.58267105 74.43787109 310.78822113 75 311 C64.21572142 300.19238145 53.42859546 289.38761087 42.6380558 278.58624363 C37.62811238 273.5711396 32.6191117 268.55510065 27.61230469 263.53686523 C22.78409122 258.69763625 17.95328551 253.86100768 13.12086105 249.02598381 C11.27393185 247.17720121 9.42788568 245.32753604 7.58272171 243.47699165 C5.00618235 240.89323575 2.42657378 238.31258311 -0.15380859 235.73266602 C-0.92272934 234.96014999 -1.69165009 234.18763397 -2.48387146 233.39170837 C-3.18499557 232.69195892 -3.88611969 231.99220947 -4.60848999 231.27125549 C-5.21871695 230.66010674 -5.8289439 230.048958 -6.45766258 229.41928959 C-7.96178302 227.90386938 -7.96178302 227.90386938 -10 227 C-10.33 175.85 -10.66 124.7 -11 72 C-14.96 79.92 -18.92 87.84 -23 96 C-29.75 93.75 -29.75 93.75 -32.6484375 92.2734375 C-33.20192871 91.99419434 -33.75541992 91.71495117 -34.32568359 91.42724609 C-35.00195801 91.08000488 -35.67823242 90.73276367 -36.375 90.375 C-37.54498535 89.77896973 -38.7149707 89.18293945 -39.92041016 88.56884766 C-40.9366748 88.05112793 -41.95293945 87.5334082 -43 87 C-34.91712335 69.53894198 -26.24467386 52.3709074 -17.62091064 35.17315674 C-15.62792783 31.19757283 -13.63731831 27.22080093 -11.64648438 23.24414062 C-7.766591 15.49495612 -3.88414909 7.74705227 0 0 Z " fill="#0C6EFD" transform="translate(1254,0)"/>
<path d="M0 0 C6.12023011 4.43395692 10.78832666 9.13869787 14 16 C14.928125 15.175 15.85625 14.35 16.8125 13.5 C34.24180719 -1.30441153 49.44291473 -5.51814603 72 -4 C76.11929875 -3.23392425 79.38824871 -2.10138257 83 0 C84.09441406 0.61875 84.09441406 0.61875 85.2109375 1.25 C92.51612418 6.0296017 96.56126515 13.27266267 98.58260727 21.64450073 C99.36303482 26.04873778 99.25943182 30.45371054 99.22705078 34.9140625 C99.22734283 35.9783699 99.22763489 37.04267731 99.22793579 38.13923645 C99.22654962 41.63457576 99.2110219 45.12969822 99.1953125 48.625 C99.19157984 51.05737186 99.18873406 53.48974523 99.18673706 55.92211914 C99.17912055 62.30731395 99.15948905 68.69241699 99.1373291 75.07757568 C99.11682796 81.59988158 99.10772622 88.12220238 99.09765625 94.64453125 C99.07624131 107.42973419 99.04107528 120.21484509 99 133 C85.14 133 71.28 133 57 133 C56.96132813 123.71875 56.96132813 123.71875 56.921875 114.25 C56.89669767 110.32157359 56.87035794 106.39322349 56.83984375 102.46484375 C56.79155935 96.23453517 56.7474956 90.00440331 56.72900391 83.77392578 C56.71381936 78.748678 56.6793416 73.72389365 56.63169098 68.69885254 C56.61689577 66.785238 56.60896006 64.87155729 56.60811615 62.95788574 C56.60573913 60.26960297 56.57860101 57.58259331 56.54589844 54.89453125 C56.5509288 54.10977921 56.55595917 53.32502716 56.56114197 52.51649475 C56.45828479 47.02329588 55.21944033 42.52728342 52 38 C46.11970716 34.23661258 39.62916503 33.98446105 32.86328125 35.46875 C27.57793173 37.21322686 23.1298316 40.30271934 19 44 C17.39818837 47.20362326 17.81980984 50.69244334 17.79467773 54.21337891 C17.78477814 55.0622316 17.77487854 55.91108429 17.76467896 56.78565979 C17.73302083 59.59926538 17.70828951 62.41288788 17.68359375 65.2265625 C17.66302794 67.17427008 17.64203157 69.12197316 17.62062073 71.06967163 C17.56536148 76.2021521 17.51596921 81.33467311 17.46777344 86.46722412 C17.40876651 92.62214605 17.34251738 98.77699372 17.27747345 104.93185425 C17.17941547 114.28785757 17.09059257 123.64390798 17 133 C2.81 133 -11.38 133 -26 133 C-26.02578125 126.8125 -26.0515625 120.625 -26.078125 114.25 C-26.10330233 110.32157359 -26.12964206 106.39322349 -26.16015625 102.46484375 C-26.20844065 96.23453517 -26.2525044 90.00440331 -26.27099609 83.77392578 C-26.28618064 78.748678 -26.3206584 73.72389365 -26.36830902 68.69885254 C-26.38310423 66.785238 -26.39103994 64.87155729 -26.39188385 62.95788574 C-26.39426087 60.26960297 -26.42139899 57.58259331 -26.45410156 54.89453125 C-26.4490712 54.10977921 -26.44404083 53.32502716 -26.43885803 52.51649475 C-26.54171521 47.02329588 -27.78055967 42.52728342 -31 38 C-36.92436808 34.20840443 -43.27804591 34.10475963 -50.1015625 35.3984375 C-56.15462217 37.25535222 -61.50210511 40.70918687 -65 46 C-66.71502658 52.3820637 -66.18734667 59.26608358 -66.09765625 65.8125 C-66.10331371 67.7516429 -66.11293035 69.69077794 -66.12632751 71.62988281 C-66.15088078 76.71360498 -66.12191014 81.79564553 -66.08154297 86.87921143 C-66.04426018 92.98916811 -66.07388811 99.09912737 -66.09221649 105.2091217 C-66.11255853 114.47375403 -66.04825871 123.73432831 -66 133 C-80.19 133 -94.38 133 -109 133 C-109 88.78 -109 44.56 -109 -1 C-94.81 -1 -80.62 -1 -66 -1 C-65.505 5.435 -65.505 5.435 -65 12 C-63.618125 10.80375 -62.23625 9.6075 -60.8125 8.375 C-45.37959734 -3.98885952 -18.19353098 -10.58224042 0 0 Z " fill="#FFFFFF" transform="translate(456,312)"/>
<path d="M0 0 C9.20708939 8.6625841 14.14569647 18.97909464 14.65039062 31.51513672 C14.85434992 43.79831693 11.88454764 53.28019968 3.25 62.3125 C-3.32626242 68.61522637 -10.20781519 72.25962296 -18.75 75.3125 C-17.66460938 75.84359375 -16.57921875 76.3746875 -15.4609375 76.921875 C-14.01551761 77.6351991 -12.57021111 78.34875301 -11.125 79.0625 C-10.41214844 79.41054688 -9.69929687 79.75859375 -8.96484375 80.1171875 C-4.66785544 82.2459707 -0.59129474 84.42849953 3.25 87.3125 C3.25 87.9725 3.25 88.6325 3.25 89.3125 C4.24 89.6425 5.23 89.9725 6.25 90.3125 C14.64162574 99.42452053 18.02210867 110.90532886 17.56640625 123.12109375 C16.14421597 137.46590188 10.37324408 149.06356634 -0.75 158.3125 C-23.75755133 175.21878957 -52.95998994 178.12730934 -80.61328125 174.12890625 C-101.52860236 170.29127953 -119.00116536 161.83758909 -133.75 146.3125 C-132.34819095 143.31536901 -130.70595812 140.73930474 -128.73828125 138.08203125 C-128.14466797 137.27830078 -127.55105469 136.47457031 -126.93945312 135.64648438 C-126.01036133 134.39834961 -126.01036133 134.39834961 -125.0625 133.125 C-124.46244141 132.31224609 -123.86238281 131.49949219 -123.24414062 130.66210938 C-119.16024189 125.14818809 -114.98576598 119.7104842 -110.75 114.3125 C-107.44304498 115.58588912 -104.91262366 116.79461185 -102.1875 119.0625 C-86.69446282 130.91351725 -67.84311157 134.47298661 -48.75 132.3125 C-41.7371809 130.87683056 -36.91183735 128.17565988 -32.75 122.3125 C-30.61255094 117.63046873 -30.4803986 114.3002198 -31.75 109.3125 C-34.38425294 104.1637329 -38.52218752 102.93617954 -43.703125 101.109375 C-49.94725854 99.47629392 -56.10126112 99.18891638 -62.53125 99.21484375 C-63.81064453 99.21734131 -65.09003906 99.21983887 -66.40820312 99.22241211 C-68.80489258 99.23606812 -68.80489258 99.23606812 -71.25 99.25 C-78.9225 99.2809375 -78.9225 99.2809375 -86.75 99.3125 C-86.75 85.4525 -86.75 71.5925 -86.75 57.3125 C-69.375 57 -69.375 57 -63.95556641 56.92456055 C-55.76827529 56.762466 -48.4726319 56.32182727 -40.75 53.3125 C-39.265 52.9103125 -39.265 52.9103125 -37.75 52.5 C-35.51653673 51.40664327 -35.51653673 51.40664327 -34.375 48.75 C-33.57759486 44.36427171 -33.53700984 40.62180713 -34.75 36.3125 C-38.42205987 31.30514564 -43.94671201 28.35544917 -49.88671875 26.7265625 C-70.48507672 23.74780951 -88.70675059 28.27813089 -105.4375 40.6875 C-106.54752571 41.55505516 -107.65418829 42.42705902 -108.75 43.3125 C-113.79887579 38.64055403 -117.79744094 33.22386994 -121.9375 27.75 C-123.02321289 26.33170898 -123.02321289 26.33170898 -124.13085938 24.88476562 C-129.96047905 17.21135927 -129.96047905 17.21135927 -131.75 13.3125 C-125.00982063 6.10298512 -118.46064249 0.14096199 -109.75 -4.6875 C-108.80382812 -5.22117187 -107.85765625 -5.75484375 -106.8828125 -6.3046875 C-76.64413942 -22.42663256 -27.22837839 -22.52906435 0 0 Z " fill="#069BFF" transform="translate(1018.75,273.6875)"/>
<path d="M0 0 C1.08667969 0.42410156 2.17335938 0.84820312 3.29296875 1.28515625 C15.17970307 6.58619677 22.36034044 14.95423228 27 27 C30.44664332 39.04200625 30.39560616 50.94551769 30.29296875 63.37109375 C30.28735966 65.38989443 30.28309579 67.40869924 30.28010559 69.42750549 C30.26876006 74.68982617 30.23938389 79.95189054 30.20599365 85.21411133 C30.1696121 91.55530757 30.15608252 97.89659046 30.13863373 104.23786163 C30.10973854 113.82541826 30.05217996 123.41241473 30 133 C15.81 133 1.62 133 -13 133 C-13.33 129.37 -13.66 125.74 -14 122 C-15.2375 123.216875 -16.475 124.43375 -17.75 125.6875 C-28.62303423 135.31644097 -42.47725044 137.49630349 -56.578125 137.25 C-69.50447215 136.30560934 -81.26763242 130.55207258 -90 121 C-98.74593898 109.33238272 -100.16783853 97.16977417 -99 83 C-97.49608766 73.74336126 -92.92403853 66.24852258 -86 60 C-85.13375 59.154375 -84.2675 58.30875 -83.375 57.4375 C-71.96891512 48.04599634 -54.7780046 49.30512233 -41 50 C-31.69248169 51.20617839 -22.20519012 54.84283753 -15 61 C-15 61.66 -15 62.32 -15 63 C-14.34 63 -13.68 63 -13 63 C-13.06058619 60.16456634 -13.14783391 57.33399855 -13.25 54.5 C-13.26417969 53.70851563 -13.27835937 52.91703125 -13.29296875 52.1015625 C-13.52811226 46.36406086 -14.72248576 41.78236514 -18 37 C-26.98732642 29.57568687 -37.95985603 30.09579047 -49 31 C-59.54950466 32.85449187 -68.1997955 38.133197 -77 44 C-80.59933213 38.31817627 -84.08839546 32.58298323 -87.4375 26.75 C-87.90865234 25.96109375 -88.37980469 25.1721875 -88.86523438 24.359375 C-89.30029297 23.59625 -89.73535156 22.833125 -90.18359375 22.046875 C-90.58118896 21.36463867 -90.97878418 20.68240234 -91.38842773 19.97949219 C-92 18 -92 18 -91.23608398 15.85400391 C-83.95503511 4.93314963 -65.96553718 -0.17520611 -54 -3 C-37.48422499 -6.18464308 -15.72570507 -6.16355474 0 0 Z M-54.4375 84.25 C-56.45941372 87.80856816 -57.29857046 90.94690606 -57 95 C-55.70860409 99.68131017 -53.70180109 102.92909719 -49.5 105.4375 C-41.06106349 109.20488237 -31.7574854 109.2593879 -23 106.3125 C-17.07276639 103.81145605 -17.07276639 103.81145605 -13 99 C-12.08176549 93.85252477 -11.4131829 88.44823209 -14.3671875 83.890625 C-20.36068016 78.50980048 -27.11305083 77.63795818 -34.875 77.625 C-35.63941406 77.60050781 -36.40382813 77.57601562 -37.19140625 77.55078125 C-44.10781381 77.51555337 -49.34148535 79.54598648 -54.4375 84.25 Z " fill="#FFFFFF" transform="translate(288,312)"/>
<path d="M0 0 C1.69757446 -0.0151062 1.69757446 -0.0151062 3.42944336 -0.03051758 C20.89957055 0.14848743 35.83024153 6.17528113 48.375 18.4375 C65.707813 38.20346814 68.375 58.91665577 68.375 84.4375 C37.355 84.4375 6.335 84.4375 -25.625 84.4375 C-19.99291539 95.70166922 -15.20549899 101.38867893 -3.625 105.4375 C6.67614632 108.74621937 19.41818127 106.75424416 28.98046875 102.1953125 C32.13608721 100.49960656 34.83407065 98.97842935 37.375 96.4375 C39.25683594 96.48486328 39.25683594 96.48486328 41.375 97.4375 C43.29785156 99.70654297 43.29785156 99.70654297 45.265625 102.6796875 C45.97460938 103.74574219 46.68359375 104.81179688 47.4140625 105.91015625 C47.77661133 106.46848145 48.13916016 107.02680664 48.51269531 107.60205078 C49.62216229 109.3081363 50.75077518 111.00023495 51.8828125 112.69140625 C57.375 121.03027701 57.375 121.03027701 57.375 124.4375 C47.62469006 133.52751807 34.24399692 138.16550318 21.375 140.4375 C20.65441406 140.56898438 19.93382812 140.70046875 19.19140625 140.8359375 C-0.22538581 143.63680029 -22.32383156 141.44593994 -39.2109375 130.80859375 C-41.45354221 129.11286984 -43.53371282 127.31578571 -45.625 125.4375 C-46.44484375 124.78136719 -47.2646875 124.12523437 -48.109375 123.44921875 C-57.9258548 115.31343928 -64.20862893 104.68231511 -67.625 92.4375 C-67.80015137 91.81504395 -67.97530273 91.19258789 -68.15576172 90.55126953 C-73.04768993 71.31084894 -70.55291579 49.69696479 -60.6640625 32.5703125 C-52.3195217 19.7497728 -41.82070672 10.2864642 -27.625 4.4375 C-26.70460938 4.04433594 -25.78421875 3.65117187 -24.8359375 3.24609375 C-16.59654967 0.31221744 -8.68492048 0.05018138 0 0 Z M-20.625 41.4375 C-23.73727563 46.0262971 -25.625 49.85638577 -25.625 55.4375 C-8.135 55.4375 9.355 55.4375 27.375 55.4375 C23.56813721 43.58667962 23.56813721 43.58667962 14.375 36.5625 C2.59867555 31.0055469 -10.98367255 32.45603526 -20.625 41.4375 Z " fill="#FFFFFF" transform="translate(646.625,307.5625)"/>
<path d="M0 0 C1.1034375 -0.02449219 2.206875 -0.04898437 3.34375 -0.07421875 C14.2040076 -0.11245909 23.88875045 2.25097462 32.28515625 9.40234375 C40.3392687 17.4884805 44.67874908 28.10002736 44.74768066 39.47052002 C44.72610901 40.89796539 44.72610901 40.89796539 44.70410156 42.35424805 C44.70468567 43.38973282 44.70526978 44.42521759 44.70587158 45.49208069 C44.70311149 48.87398214 44.67211772 52.25497357 44.640625 55.63671875 C44.63315524 57.99753844 44.62746578 60.35836437 44.62347412 62.7191925 C44.60827581 68.90226668 44.56904402 75.08495895 44.5246582 81.2678833 C44.48358005 87.58934362 44.46543638 93.91086626 44.4453125 100.23242188 C44.40254405 112.61347517 44.33224169 124.99414592 44.25 137.375 C30.39 137.375 16.53 137.375 2.25 137.375 C2.21261719 131.64382813 2.17523437 125.91265625 2.13671875 120.0078125 C2.10641797 116.36194996 2.07525634 112.71613498 2.04101562 109.0703125 C1.9868316 103.29234304 1.93571636 97.51446767 1.90356445 91.73632812 C1.87742224 87.07421805 1.83694368 82.41242665 1.78681374 77.75051498 C1.77021852 75.9781073 1.75865875 74.20564459 1.75238609 72.43317032 C2.29344017 57.82189922 2.29344017 57.82189922 -3.05976868 44.74880981 C-8.63809342 39.64905767 -14.70928649 38.95646774 -21.94921875 39.1328125 C-30.45917065 39.86868003 -36.54095103 43.62331401 -42.75 49.375 C-44.34056649 52.55613298 -43.93007797 56.00094262 -43.95532227 59.49658203 C-43.96522186 60.33568115 -43.97512146 61.17478027 -43.98532104 62.03930664 C-44.01697792 64.82044629 -44.04171 67.60160304 -44.06640625 70.3828125 C-44.08697216 72.30809988 -44.10796854 74.23338271 -44.12937927 76.15866089 C-44.18463741 81.23195718 -44.23403017 86.30529447 -44.28222656 91.37866211 C-44.34123451 97.46266679 -44.40748303 103.54659637 -44.47252655 109.63053894 C-44.57058313 118.87864685 -44.65940698 128.12680239 -44.75 137.375 C-58.61 137.375 -72.47 137.375 -86.75 137.375 C-86.75 93.155 -86.75 48.935 -86.75 3.375 C-72.89 3.375 -59.03 3.375 -44.75 3.375 C-44.255 10.305 -44.255 10.305 -43.75 17.375 C-42.925 16.385 -42.1 15.395 -41.25 14.375 C-37.5409987 10.65082896 -33.46555714 8.38902857 -28.8125 6.0625 C-28.14476562 5.72541016 -27.47703125 5.38832031 -26.7890625 5.04101562 C-17.86486096 0.73547979 -9.81180584 0.01130392 0 0 Z " fill="#FFFFFF" transform="translate(821.75,307.625)"/>
<path d="M0 0 C0.66 0 1.32 0 2 0 C16.19 28.38 30.38 56.76 45 86 C41.41023449 88.69232413 37.86738117 90.71600456 33.875 92.6875 C33.24207031 93.00783203 32.60914063 93.32816406 31.95703125 93.65820312 C27.25346482 96 27.25346482 96 25 96 C23.01428546 92.08661969 21.03757315 88.16876034 19.0625 84.25 C18.49853516 83.13882813 17.93457031 82.02765625 17.35351562 80.8828125 C16.81533203 79.81289062 16.27714844 78.74296875 15.72265625 77.640625 C15.22515869 76.65610352 14.72766113 75.67158203 14.21508789 74.65722656 C13.17970621 72.39299225 12.55634913 70.40604834 12 68 C12.00222061 68.71506997 12.00444122 69.43013994 12.00672913 70.1668787 C12.05804687 87.57759585 12.06518811 104.98777192 12.02334595 122.39851475 C12.004173 130.81833622 11.999874 139.23767178 12.03076172 147.6574707 C12.05765025 154.99745368 12.0564565 162.3368072 12.02174091 169.67676681 C12.00433863 173.56239176 12.00086351 177.44688944 12.03103638 181.3324604 C12.0590178 184.99302348 12.04933355 188.65159065 12.01126289 192.31204414 C12.00035418 194.28955499 12.02892817 196.26716135 12.05882263 198.24447632 C11.91915228 206.78958432 11.91915228 206.78958432 9.25547791 210.29733086 C7.25244523 212.06191143 5.22258267 213.52850107 3 215 C1.99786742 215.90749476 1.0170693 216.83950283 0.06640625 217.80078125 C-1.6184632 219.4909077 -3.30601545 221.17836349 -4.99609375 222.86328125 C-7.03659707 224.8351513 -7.03659707 224.8351513 -8 227 C-8.66 227 -9.32 227 -10 227 C-10.33 175.85 -10.66 124.7 -11 72 C-14.96 79.92 -18.92 87.84 -23 96 C-29.75 93.75 -29.75 93.75 -32.6484375 92.2734375 C-33.20192871 91.99419434 -33.75541992 91.71495117 -34.32568359 91.42724609 C-35.00195801 91.08000488 -35.67823242 90.73276367 -36.375 90.375 C-37.54498535 89.77896973 -38.7149707 89.18293945 -39.92041016 88.56884766 C-40.9366748 88.05112793 -41.95293945 87.5334082 -43 87 C-34.91712335 69.53894198 -26.24467386 52.3709074 -17.62091064 35.17315674 C-15.62792783 31.19757283 -13.63731831 27.22080093 -11.64648438 23.24414062 C-7.766591 15.49495612 -3.88414909 7.74705227 0 0 Z " fill="#09CD09" transform="translate(1254,0)"/>
<path d="M0 0 C17.46105802 8.08287665 34.6290926 16.75532614 51.82684326 25.37908936 C55.80242717 27.37207217 59.77919907 29.36268169 63.75585938 31.35351562 C71.50504388 35.233409 79.25294773 39.11585091 87 43 C87 43.66 87 44.32 87 45 C76.12155829 50.48552148 65.23883409 55.96244062 54.35052872 61.42835999 C49.29501752 63.96656145 44.24104057 66.50772386 39.19042969 69.05566406 C34.31804443 71.51355631 29.44181437 73.96365539 24.56279755 76.40835571 C22.70023727 77.34333678 20.83908965 78.28113739 18.97937775 79.22177124 C16.37825983 80.53680668 13.77234058 81.84180924 11.16503906 83.14453125 C10.39395813 83.53726227 9.6228772 83.92999329 8.82843018 84.33462524 C8.11614258 84.68801971 7.40385498 85.04141418 6.66998291 85.40551758 C6.0542252 85.71524002 5.43846748 86.02496246 4.80405045 86.34407043 C3 87 3 87 -1 87 C-2.37021794 84.23682377 -3.71830176 81.46341522 -5.0625 78.6875 C-5.45244141 77.90181641 -5.84238281 77.11613281 -6.24414062 76.30664062 C-6.60830078 75.54931641 -6.97246094 74.79199219 -7.34765625 74.01171875 C-7.68804932 73.31522217 -8.02844238 72.61872559 -8.37915039 71.90112305 C-9 70 -9 70 -8 67 C-5.68334961 65.55786133 -5.68334961 65.55786133 -2.65234375 64.08203125 C-1.57275391 63.55029297 -0.49316406 63.01855469 0.61914062 62.47070312 C1.75544922 61.92349609 2.89175781 61.37628906 4.0625 60.8125 C5.20267578 60.25369141 6.34285156 59.69488281 7.51757812 59.11914062 C10.3407975 57.73706252 13.16825792 56.36450838 16 55 C15.38452679 55.01328213 14.76905357 55.02656425 14.13492966 55.04024887 C-0.93519058 55.35842502 -16.00237146 55.56281092 -31.07538223 55.64509201 C-38.36549873 55.6875493 -45.6515787 55.76659292 -52.93994141 55.93603516 C-59.30300492 56.08386823 -65.66233613 56.15871643 -72.02717662 56.15080285 C-75.39233097 56.1490425 -78.74186055 56.19126925 -82.10630035 56.29979706 C-95.78686645 56.71856378 -105.75257348 56.46045656 -116.10802841 46.74187088 C-127 35.36733725 -127 35.36733725 -127 33 C-56.71 32.505 -56.71 32.505 15 32 C7.08 28.04 -0.84 24.08 -9 20 C-8.24983072 16.24915361 -7.86396529 14.35485727 -6.15234375 11.23046875 C-5.82999756 10.63387451 -5.50765137 10.03728027 -5.17553711 9.42260742 C-4.76698486 8.68502197 -4.35843262 7.94743652 -3.9375 7.1875 C-3.23465588 5.90560229 -2.5322944 4.62343988 -1.83032227 3.34106445 C-0.92431274 1.68723755 -0.92431274 1.68723755 0 0 Z " fill="#CD0909" transform="translate(1399,182)"/>
</svg>
