{
  "accessors" : [
    {
      "bufferView" : 0,
      "byteOffset" : 0,
      "componentType" : 5126,
      "count" : 232,
      "max" : [
        4.3545823097229004,
        8.9136419296264648,
        2.9004244804382324
      ],
      "min" : [
        -4.4460945129394531,
        -0.5,
        -0.5
      ],
      "type" : "VEC3"
    },
    {
      "bufferView" : 0,
      "byteOffset" : 12,
      "componentType" : 5126,
      "count" : 232,
      "type" : "VEC3"
    },
    {
      "bufferView" : 0,
      "byteOffset" : 24,
      "componentType" : 5126,
      "count" : 232,
      "type" : "VEC2"
    },
    {
      "bufferView" : 0,
      "byteOffset" : 32,
      "componentType" : 5126,
      "count" : 232,
      "type" : "VEC4"
    },
    {
      "bufferView" : 0,
      "byteOffset" : 48,
      "componentType" : 5121,
      "count" : 232,
      "type" : "VEC4"
    },
    {
      "bufferView" : 1,
      "byteOffset" : 0,
      "componentType" : 5121,
      "count" : 348,
      "max" : [
        231
      ],
      "min" : [
        0
      ],
      "type" : "SCALAR"
    },
    {
      "bufferView" : 2,
      "byteOffset" : 0,
      "componentType" : 5126,
      "count" : 9,
      "type" : "MAT4"
    }
  ],
  "asset" : {
    "generator" : "Cheetah3D - www.cheetah3d.com",
    "version" : "2.0"
  },
  "buffers" : [
    {
      "byteLength" : 12988,
      "uri" : "data:application/octet-stream;base64,"
    }
  ],
  "bufferViews" : [
    {
      "buffer" : 0,
      "byteLength" : 12064,
      "byteOffset" : 0,
      "byteStride" : 52,
      "target" : 34962
    },
    {
      "buffer" : 0,
      "byteLength" : 348,
      "byteOffset" : 12064,
      "target" : 34963
    },
    {
      "buffer" : 0,
      "byteLength" : 576,
      "byteOffset" : 12412
    }
  ],
  "cameras" : [
    {
      "name" : "Camera",
      "perspective" : {
        "yfov" : 0.69813168048858643,
        "zfar" : 1000,
        "znear" : 0.05000000074505806
      },
      "type" : "perspective"
    }
  ],
  "meshes" : [
    {
      "primitives" : [
        {
          "attributes" : {
            "JOINTS_0" : 4,
            "NORMAL" : 1,
            "POSITION" : 0,
            "TEXCOORD_0" : 2,
            "WEIGHTS_0" : 3
          },
          "indices" : 5,
          "mode" : 4
        }
      ]
    }
  ],
  "nodes" : [
    {
      "children" : [
        1,
        2
      ],
      "name" : "root"
    },
    {
      "camera" : 0,
      "matrix" : [
        0.81915205717086792,
        0,
        0.57357645034790039,
        0,
        0.099600508809089661,
        0.98480772972106934,
        -0.14224426448345184,
        0,
        -0.56486254930496216,
        0.1736481785774231,
        0.80670726299285889,
        0,
        -22.792097091674805,
        7.0094819068908691,
        32.541828155517578,
        1
      ],
      "name" : "Camera"
    },
    {
      "children" : [
        3
      ],
      "mesh" : 0,
      "name" : "Box",
      "skin" : 0
    },
    {
      "children" : [
        4,
        9
      ],
      "name" : "Root"
    },
    {
      "children" : [
        5,
        7
      ],
      "matrix" : [
        1,
        0,
        0,
        0,
        0,
        1,
        0,
        0,
        0,
        0,
        1,
        0,
        0,
        3.4766635894775391,
        0,
        1
      ],
      "name" : "Stomach"
    },
    {
      "children" : [
        6
      ],
      "matrix" : [
        1,
        0,
        0,
        0,
        0,
        1,
        0,
        0,
        0,
        0,
        1,
        0,
        -1.4228063821792603,
        0,
        0,
        1
      ],
      "name" : "ElbowL"
    },
    {
      "matrix" : [
        1,
        0,
        0,
        0,
        0,
        1,
        0,
        0,
        0,
        0,
        1,
        0,
        -2.1352701187133789,
        0,
        0,
        1
      ],
      "name" : "HandL"
    },
    {
      "children" : [
        8
      ],
      "matrix" : [
        1,
        0,
        0,
        0,
        0,
        1,
        0,
        0,
        0,
        0,
        1,
        0,
        1.7175763845443726,
        0,
        0,
        1
      ],
      "name" : "ElbowR"
    },
    {
      "matrix" : [
        1,
        0,
        0,
        0,
        0,
        1,
        0,
        0,
        0,
        0,
        1,
        0,
        1.9288480281829834,
        0,
        0,
        1
      ],
      "name" : "HandR"
    },
    {
      "children" : [
        10
      ],
      "matrix" : [
        1,
        0,
        0,
        0,
        0,
        1,
        0,
        0,
        0,
        0,
        1,
        0,
        0,
        5.0863509178161621,
        0,
        1
      ],
      "name" : "Neck"
    },
    {
      "children" : [
        11
      ],
      "matrix" : [
        1,
        0,
        0,
        0,
        0,
        1.0000001192092896,
        0,
        0,
        0,
        1.0308689901705748e-08,
        0.99999994039535522,
        0,
        0,
        1.8901660442352295,
        0.73847699165344238,
        1
      ],
      "name" : "Head"
    },
    {
      "matrix" : [
        1,
        0,
        0,
        0,
        0,
        1,
        0,
        0,
        0,
        0,
        1,
        0,
        0,
        1.7615633010864258,
        1.5979363918304443,
        1
      ],
      "name" : "Tip"
    }
  ],
  "scene" : 0,
  "scenes" : [
    {
      "nodes" : [
        0
      ]
    }
  ],
  "skins" : [
    {
      "inverseBindMatrices" : 6,
      "joints" : [
        3,
        4,
        5,
        6,
        7,
        8,
        9,
        10,
        11
      ]
    }
  ]
}